<svg id="visual" viewBox="0 0 900 600" width="900" height="600" xmlns="http://www.w3.org/2000/svg" xmlns:xlink="http://www.w3.org/1999/xlink" version="1.1"><rect x="0" y="0" width="900" height="600" fill="#001220"></rect><path d="M0 257L21.5 262C43 267 86 277 128.8 276.3C171.7 275.7 214.3 264.3 257.2 260.2C300 256 343 259 385.8 274C428.7 289 471.3 316 514.2 339.7C557 363.3 600 383.7 642.8 372.2C685.7 360.7 728.3 317.3 771.2 315.3C814 313.3 857 352.7 878.5 372.3L900 392L900 601L878.5 601C857 601 814 601 771.2 601C728.3 601 685.7 601 642.8 601C600 601 557 601 514.2 601C471.3 601 428.7 601 385.8 601C343 601 300 601 257.2 601C214.3 601 171.7 601 128.8 601C86 601 43 601 21.5 601L0 601Z" fill="#fa7268"></path><path d="M0 333L21.5 337.2C43 341.3 86 349.7 128.8 356.8C171.7 364 214.3 370 257.2 376.5C300 383 343 390 385.8 384C428.7 378 471.3 359 514.2 347.3C557 335.7 600 331.3 642.8 344.5C685.7 357.7 728.3 388.3 771.2 404.8C814 421.3 857 423.7 878.5 424.8L900 426L900 601L878.5 601C857 601 814 601 771.2 601C728.3 601 685.7 601 642.8 601C600 601 557 601 514.2 601C471.3 601 428.7 601 385.8 601C343 601 300 601 257.2 601C214.3 601 171.7 601 128.8 601C86 601 43 601 21.5 601L0 601Z" fill="#f36567"></path><path d="M0 367L21.5 372C43 377 86 387 128.8 388.8C171.7 390.7 214.3 384.3 257.2 388.5C300 392.7 343 407.3 385.8 404.8C428.7 402.3 471.3 382.7 514.2 387.3C557 392 600 421 642.8 429.2C685.7 437.3 728.3 424.7 771.2 405.5C814 386.3 857 360.7 878.5 347.8L900 335L900 601L878.5 601C857 601 814 601 771.2 601C728.3 601 685.7 601 642.8 601C600 601 557 601 514.2 601C471.3 601 428.7 601 385.8 601C343 601 300 601 257.2 601C214.3 601 171.7 601 128.8 601C86 601 43 601 21.5 601L0 601Z" fill="#eb5967"></path><path d="M0 440L21.5 434.8C43 429.7 86 419.3 128.8 414.5C171.7 409.7 214.3 410.3 257.2 407.8C300 405.3 343 399.7 385.8 410.3C428.7 421 471.3 448 514.2 461.3C557 474.7 600 474.3 642.8 472C685.7 469.7 728.3 465.3 771.2 455.7C814 446 857 431 878.5 423.5L900 416L900 601L878.5 601C857 601 814 601 771.2 601C728.3 601 685.7 601 642.8 601C600 601 557 601 514.2 601C471.3 601 428.7 601 385.8 601C343 601 300 601 257.2 601C214.3 601 171.7 601 128.8 601C86 601 43 601 21.5 601L0 601Z" fill="#e34c67"></path><path d="M0 476L21.5 471.2C43 466.3 86 456.7 128.8 456C171.7 455.3 214.3 463.7 257.2 467.2C300 470.7 343 469.3 385.8 462.3C428.7 455.3 471.3 442.7 514.2 436C557 429.3 600 428.7 642.8 432.2C685.7 435.7 728.3 443.3 771.2 453C814 462.7 857 474.3 878.5 480.2L900 486L900 601L878.5 601C857 601 814 601 771.2 601C728.3 601 685.7 601 642.8 601C600 601 557 601 514.2 601C471.3 601 428.7 601 385.8 601C343 601 300 601 257.2 601C214.3 601 171.7 601 128.8 601C86 601 43 601 21.5 601L0 601Z" fill="#da3f67"></path><path d="M0 492L21.5 493.5C43 495 86 498 128.8 502.5C171.7 507 214.3 513 257.2 514.3C300 515.7 343 512.3 385.8 514.8C428.7 517.3 471.3 525.7 514.2 522.3C557 519 600 504 642.8 494.2C685.7 484.3 728.3 479.7 771.2 479.2C814 478.7 857 482.3 878.5 484.2L900 486L900 601L878.5 601C857 601 814 601 771.2 601C728.3 601 685.7 601 642.8 601C600 601 557 601 514.2 601C471.3 601 428.7 601 385.8 601C343 601 300 601 257.2 601C214.3 601 171.7 601 128.8 601C86 601 43 601 21.5 601L0 601Z" fill="#d03267"></path><path d="M0 558L21.5 557.5C43 557 86 556 128.8 554.8C171.7 553.7 214.3 552.3 257.2 554.5C300 556.7 343 562.3 385.8 557.7C428.7 553 471.3 538 514.2 531.8C557 525.7 600 528.3 642.8 530.5C685.7 532.7 728.3 534.3 771.2 540.2C814 546 857 556 878.5 561L900 566L900 601L878.5 601C857 601 814 601 771.2 601C728.3 601 685.7 601 642.8 601C600 601 557 601 514.2 601C471.3 601 428.7 601 385.8 601C343 601 300 601 257.2 601C214.3 601 171.7 601 128.8 601C86 601 43 601 21.5 601L0 601Z" fill="#c62368"></path></svg>